<?xml version="1.0" encoding="utf-8"?>
<svg width="16px" height="15px" viewBox="0 0 16 15" version="1.1" xmlns:xlink="http://www.w3.org/1999/xlink" xmlns="http://www.w3.org/2000/svg">
    <desc>Created with Lunacy</desc>
    <g id="arrow-right-solid">
        <path d="M6.80281 1.00469L7.59558 0.242157C7.93126 -0.080719 8.47405 -0.080719 8.80616 0.242157L15.7482 6.91608C16.0839 7.23895 16.0839 7.76105 15.7482 8.08049L8.80616 14.7578C8.47048 15.0807 7.92769 15.0807 7.59558 14.7578L6.80281 13.9953C6.46356 13.669 6.47071 13.1366 6.8171 12.8172L11.1202 8.87394L0.857047 8.87394C0.3821 8.87394 0 8.50641 0 8.04958L0 6.95042C0 6.49359 0.3821 6.12606 0.857047 6.12606L11.1202 6.12606L6.8171 2.18285C6.46714 1.86341 6.45999 1.33101 6.80281 1.00469Z" id="arrow-right-solid" fill="#FFFFFF" stroke="none" />
    </g>
</svg>