<?xml version="1.0" encoding="utf-8"?>
<svg width="11px" height="11px" viewBox="0 0 11 11" version="1.1" xmlns:xlink="http://www.w3.org/1999/xlink" xmlns="http://www.w3.org/2000/svg">
    <path d="M4.67693 0.736776L5.22196 0.177582C5.45274 -0.059194 5.82591 -0.059194 6.05423 0.177582L10.8269 5.07179C11.0577 5.30856 11.0577 5.69144 10.8269 5.92569L6.05423 10.8224C5.82346 11.0592 5.45028 11.0592 5.22196 10.8224L4.67693 10.2632C4.4437 10.0239 4.44861 9.6335 4.68675 9.39924L7.64513 6.50756L0.58922 6.50756C0.262694 6.50756 2.93099e-14 6.23804 2.93099e-14 5.90302L2.93099e-14 5.09698C2.93099e-14 4.76196 0.262694 4.49244 0.58922 4.49244L7.64513 4.49244L4.68675 1.60076C4.44616 1.3665 4.44125 0.976071 4.67693 0.736776Z" transform="matrix(1.192488E-08 1 -1 1.192488E-08 11 0)" id="arrow-right-solid" fill="#0A84EC" stroke="none" />
</svg>