<?xml version="1.0" encoding="utf-8"?>
<svg width="85px" height="50px" viewBox="0 0 85 50" version="1.1" xmlns:xlink="http://www.w3.org/1999/xlink" xmlns="http://www.w3.org/2000/svg">
    <desc>Created with Lunacy</desc>
    <defs>
        <linearGradient x1="2.12290252E-05" y1="0.50077033" x2="0.9999796" y2="0.50077033" id="gradient_1">
            <stop offset="0" stop-color="#0884EC" />
            <stop offset="0.1" stop-color="#217DF0" />
            <stop offset="0.25" stop-color="#3F74F6" />
            <stop offset="0.41" stop-color="#576EFA" />
            <stop offset="0.58" stop-color="#6869FD" />
            <stop offset="0.77" stop-color="#7266FE" />
            <stop offset="1" stop-color="#7565FF" />
        </linearGradient>
    </defs>
    <g id="Asset-1">
        <path d="M77.9578 0.543333C77.2645 0.889109 76.6784 1.41424 76.2616 2.06313C75.8364 2.72677 75.6163 3.49919 75.6284 4.28525C75.5944 5.46417 76.0876 6.59776 76.9761 7.38241C78.9029 8.99629 81.7238 8.99629 83.6506 7.38241C84.5397 6.59824 85.0331 5.46432 84.9983 4.28525C85.0294 3.11354 84.5361 1.98816 83.6506 1.21112C82.7352 0.398039 81.5392 -0.0348378 80.3104 0.00219431C79.4937 -0.00759414 78.6867 0.178038 77.9578 0.543333ZM4.68381 0.00219431C3.86514 -0.00852347 3.056 0.177134 2.32538 0.543333C1.63418 0.88996 1.05019 1.41502 0.634979 2.06313C0.209723 2.72677 -0.010372 3.49919 0.00180447 4.28525C-0.0337407 5.46325 0.457334 6.59669 1.34367 7.38241C2.2591 8.19549 3.45509 8.62837 4.68381 8.59134C5.91054 8.62688 7.10419 8.1941 8.01815 7.38241C8.90664 6.59776 9.3999 5.46417 9.36582 4.28525C9.39699 3.11354 8.90364 1.98816 8.01815 1.21112C7.10419 0.39943 5.91054 -0.0333482 4.68381 0.00219431ZM78.4225 10.6753L78.4225 10.6292L82.1751 10.6292L82.1751 10.6753C82.1751 32.3937 64.4094 50 42.4942 50C20.5791 50 2.81333 32.3937 2.81333 10.6753L2.81333 10.6292L6.54268 10.6292L6.54268 10.6753C6.54268 30.3462 22.6335 46.2926 42.4826 46.2926C62.3317 46.2926 78.4225 30.3462 78.4225 10.6753Z" id="Shape" fill="url(#gradient_1)" fill-rule="evenodd" stroke="none" />
    </g>
</svg>