<svg width="38" height="38" viewBox="0 0 38 38" fill="none" xmlns="http://www.w3.org/2000/svg">
<path opacity="0.1" fill-rule="evenodd" clip-rule="evenodd" d="M19 38C8.50659 38 0 29.4934 0 19C0 8.50659 8.50659 0 19 0C29.4934 0 38 8.50659 38 19C38 29.4934 29.4934 38 19 38Z" fill="#0A84EC"/>
<path d="M19.3231 12.7368L18.778 12.1776C18.5473 11.9408 18.1741 11.9408 17.9458 12.1776L13.1731 17.0718C12.9423 17.3086 12.9423 17.6914 13.1731 17.9257L17.9458 22.8224C18.1765 23.0592 18.5497 23.0592 18.778 22.8224L19.3231 22.2632C19.5563 22.0239 19.5514 21.6335 19.3132 21.3992L16.3549 18.5076H23.4108C23.7373 18.5076 24 18.238 24 17.903V17.097C24 16.762 23.7373 16.4924 23.4108 16.4924H16.3549L19.3132 13.6008C19.5538 13.3665 19.5588 12.9761 19.3231 12.7368Z" fill="#0A84EC"/>
</svg>
