<?xml version="1.0" encoding="utf-8"?>
<svg width="222px" height="129px" viewBox="0 0 222 129" version="1.1" xmlns:xlink="http://www.w3.org/1999/xlink" xmlns="http://www.w3.org/2000/svg">
    <desc>Created with Lunacy</desc>
    <defs>
        <linearGradient x1="0" y1="0.5" x2="1" y2="0.5" id="gradient_1">
            <stop offset="0" stop-color="#0A84EC" />
            <stop offset="1" stop-color="#7565FF" />
        </linearGradient>
    </defs>
    <path d="M193.363 7.95432C192.414 7.10887 191.887 5.8883 191.924 4.61929C191.912 3.77205 192.147 2.93954 192.603 2.2242C193.05 1.52551 193.678 0.960249 194.42 0.588149C195.199 0.194087 196.062 -0.00691512 196.935 0.00215957C198.248 -0.0358902 199.525 0.430075 200.504 1.30392C201.451 2.141 201.979 3.35314 201.947 4.61535C201.984 5.88636 201.456 7.10871 200.504 7.95432C198.444 9.6966 195.423 9.6966 193.363 7.95432ZM32.9501 7.95432C31.9999 7.10798 31.4734 5.88573 31.5116 4.61536C31.4976 3.76797 31.7333 2.93514 32.1895 2.22027C32.636 1.52132 33.2638 0.95599 34.0063 0.584217C34.7841 0.191986 35.6452 -0.00765502 36.5166 0.00215957C37.8287 -0.0358902 39.1054 0.430075 40.0832 1.30392C41.0349 2.14009 41.5661 3.35434 41.5335 4.61929C41.5723 5.88977 41.0456 7.11223 40.095 7.95825C38.0363 9.70054 35.0167 9.70054 32.958 7.95825L32.9501 7.95432ZM71.6129 36.6106L71.6129 0L63.4131 0L63.4131 14.8744L63.3086 14.8744C61.4927 12.877 58.8382 11.7629 56.0735 11.8379C52.9011 11.8261 49.873 13.1064 47.7451 15.3593C46.6616 16.5324 45.8286 17.8974 45.2932 19.3771C44.6866 21.0178 44.3847 22.7475 44.4009 24.4879C44.3813 26.2398 44.6834 27.9814 45.2932 29.6333C45.8319 31.1014 46.6755 32.4498 47.7733 33.5973C48.849 34.6948 50.1542 35.5628 51.6038 36.145C53.1381 36.7671 54.7893 37.0815 56.4554 37.0686Q61.2064 37.0686 63.7628 33.9898L63.8633 33.9898L63.8633 36.6106L71.6129 36.6106ZM155.025 14.1722C154.23 13.423 153.287 12.8532 152.258 12.5005C151.111 12.1309 149.912 11.9532 148.708 11.9744C147.271 11.9639 145.846 12.2476 144.519 12.8083C143.218 13.3608 142.061 14.2103 141.139 15.2905L141.039 15.2905L141.039 0L133.2 0L133.2 37.069L141.039 37.069L141.039 24.6581L141.062 24.6581C141.062 22.7903 141.471 21.381 142.288 20.4302C143.135 19.4652 144.37 18.9407 145.644 19.004Q147.799 19.004 148.755 20.1341Q149.71 21.2641 149.71 24.1398L149.71 37.0573L157.545 37.0573L157.545 22.211C157.577 20.5686 157.359 18.931 156.898 17.3557C156.556 16.1486 155.911 15.0516 155.025 14.1722ZM11.8528 26.6041L19.6184 38.5477L30.0774 38.5517L21.2205 25.5099L21.2205 25.3807C23.3518 24.5606 25.1688 23.1003 26.4153 21.2057Q28.2341 18.4036 28.2341 14.277C28.2561 12.541 27.9797 10.8139 27.4167 9.16931C26.8958 7.67338 26.0695 6.29908 24.9889 5.1316C23.8166 3.91229 22.3642 2.9899 20.7546 2.44248C18.8142 1.77295 16.7688 1.44894 14.7138 1.48555L0 1.48555L0 38.5477L8.7547 38.5477L8.7547 26.6041L11.8528 26.6041ZM108.158 37.1005C105.731 36.0917 103.533 34.6213 101.69 32.7744L106.845 26.5841C108.073 27.9208 109.55 29.0154 111.197 29.809C112.567 30.4932 114.076 30.8669 115.613 30.9024C116.435 30.9305 117.254 30.7968 118.022 30.5091C118.579 30.3079 119.057 29.9389 119.387 29.4551C119.658 29.0052 119.797 28.4908 119.788 27.9685C119.822 27.0564 119.392 26.1873 118.64 25.6481C117.875 25.0765 116.412 24.4433 114.252 23.7485C113.35 23.4496 112.547 23.1638 111.843 22.8912C111.139 22.6185 110.374 22.2763 109.547 21.8647C108.806 21.5044 108.093 21.0903 107.415 20.6258C106.777 20.1735 106.18 19.6668 105.633 19.1117C105.069 18.5562 104.588 17.9261 104.203 17.2397C103.815 16.5168 103.515 15.7511 103.312 14.9586C103.076 14.0501 102.96 13.1156 102.967 12.1781C102.947 10.2637 103.506 8.38637 104.573 6.78226C105.67 5.13854 107.194 3.81089 108.989 2.93594C110.891 1.99218 112.991 1.49531 115.123 1.48473C119.767 1.41918 124.071 2.99231 128.034 6.20413L123.06 12.4967Q118.62 9.02398 115.404 9.02398C114.52 8.9759 113.647 9.23957 112.943 9.76728C112.331 10.2809 111.988 11.0385 112.012 11.8281C112.002 12.6375 112.421 13.394 113.12 13.826Q114.256 14.6322 117.42 15.8239C119.581 16.5841 121.694 17.4706 123.747 18.4785C126.027 19.7187 127.533 21.2735 128.263 23.1429C128.709 24.3679 128.925 25.6615 128.902 26.9617C128.922 28.4906 128.636 30.0087 128.058 31.4294C127.565 32.6677 126.813 33.7915 125.85 34.729C124.914 35.6078 123.847 36.3436 122.687 36.9117C121.545 37.4879 120.33 37.9138 119.074 38.1781C117.862 38.426 116.627 38.5512 115.388 38.5517C112.904 38.5437 110.446 38.0503 108.158 37.1005ZM12.8419 18.9608L8.7547 18.9608L8.7547 9.20565L12.9727 9.20565Q15.8296 9.20565 17.4031 10.5542C18.4392 11.4306 19.0165 12.7243 18.9726 14.0711C19.0344 15.4525 18.4274 16.7806 17.3377 17.6485C16.2478 18.5233 14.7492 18.9608 12.8419 18.9608ZM101.483 25.9584L84.0428 25.9584C84.2908 27.2828 85.0493 28.4533 86.1514 29.2122C87.3172 30.0056 88.698 30.4134 90.103 30.3795Q93.6562 30.3795 96.3161 27.2762L100.666 32.1568C99.4106 33.7059 97.8057 34.9277 95.9861 35.7197C93.8568 36.6521 91.554 37.1113 89.2338 37.0659C87.429 37.0782 85.638 36.747 83.9543 36.0898C82.3775 35.4834 80.9378 34.5622 79.721 33.381C78.5127 32.1791 77.5632 30.7376 76.9324 29.1471C76.2404 27.4246 75.8931 25.5805 75.9103 23.7215C75.8957 21.8873 76.2304 20.0673 76.8962 18.3609C78.1 15.1631 80.5845 12.6283 83.737 11.3816C85.3897 10.7068 87.1576 10.3668 88.9401 10.3811C91.2464 10.3427 93.5223 10.9178 95.5394 12.0487C97.4609 13.1372 99.0354 14.7569 100.079 16.7178C101.176 18.8001 101.73 21.1308 101.688 23.4896C101.673 24.3162 101.605 25.1409 101.483 25.9584ZM189.058 36.5845L189.058 10.8709L180.806 10.8709L180.806 13.5923L180.705 13.5923C178.95 11.4894 176.336 10.3073 173.607 10.3827C170.412 10.3702 167.364 11.7235 165.221 14.1049C164.126 15.3492 163.284 16.7977 162.744 18.3681C162.134 20.1024 161.83 21.9307 161.846 23.7704C161.826 25.6222 162.13 27.4632 162.744 29.2092C163.281 30.7605 164.123 32.1871 165.221 33.4033C166.312 34.5645 167.635 35.4808 169.102 36.0922C170.647 36.75 172.31 37.0823 173.987 37.0686C177.092 37.0686 179.476 35.9838 181.138 33.8142L181.239 33.8142L181.239 36.5845L189.058 36.5845ZM222 10.4091L222 19.4256Q221.204 19.3717 219.936 19.3717C218.732 19.3409 217.54 19.6062 216.474 20.1424C215.544 20.6146 214.789 21.3495 214.311 22.2473C213.829 23.1995 213.588 24.2473 213.61 25.3053L213.61 37.069L204.813 37.069L204.813 10.8773L213.614 10.8773L213.614 14.3787L213.722 14.3787C214.381 13.5421 215.164 12.8022 216.046 12.1826C216.871 11.603 217.785 11.1488 218.755 10.8359C219.703 10.5322 220.697 10.3782 221.697 10.3801C221.799 10.3763 221.901 10.3861 222 10.4091ZM32.5087 12.2096L40.497 12.2096L40.497 37.069L32.5087 37.069L32.5087 12.2096ZM192.926 12.2096L200.918 12.2096L200.918 37.069L192.926 37.069L192.926 12.2096ZM85.7893 18.0437C84.8733 18.8033 84.2636 19.8752 84.075 21.0575L93.6643 21.0046C93.5067 20.2346 93.2034 19.5026 92.7709 18.849C92.3695 18.2564 91.8233 17.7786 91.1855 17.4621C90.5086 17.1306 89.7645 16.9634 89.0125 16.974C87.8476 16.9345 86.7053 17.3055 85.7812 18.0234L85.7893 18.0437ZM181.138 23.7785C181.206 25.3882 180.642 26.9603 179.568 28.1556L179.564 28.1556C178.539 29.2293 177.123 29.8362 175.642 29.8362C174.162 29.8362 172.746 29.2293 171.721 28.1556C170.662 26.9527 170.109 25.3833 170.179 23.7785C170.109 22.1577 170.673 20.5737 171.749 19.3648C172.763 18.2497 174.209 17.6322 175.711 17.6725C176.688 17.6625 177.647 17.9335 178.475 18.4536C179.315 18.9841 179.992 19.739 180.43 20.634C180.912 21.6102 181.155 22.6885 181.138 23.7785ZM63.799 24.4956C63.8678 26.0304 63.2883 27.5271 62.1912 28.6481C61.1356 29.6958 59.6674 30.2687 58.1476 30.226C56.6565 30.2712 55.2192 29.6907 54.2125 28.6366C53.161 27.4983 52.612 26.0137 52.6811 24.4956C52.6123 22.9623 53.1719 21.4639 54.2406 20.32C55.2477 19.2651 56.6836 18.6809 58.1757 18.719C59.1944 18.7051 60.1973 18.9608 61.0738 19.4579C61.9344 19.9492 62.6314 20.6646 63.0835 21.5207C63.5704 22.4421 63.8159 23.4631 63.799 24.4956ZM200.516 43.1035C200.516 90.4686 162.929 129 116.729 129C70.5286 129 32.9419 90.4646 32.9419 43.1035L32.9419 43L40.8826 43L40.8826 43.1035C40.8826 86.002 74.925 120.899 116.748 120.899C158.572 120.899 192.614 85.998 192.614 43.1035L192.614 43L200.516 43L200.516 43.1035Z" id="Combined-Shape" fill="url(#gradient_1)" fill-rule="evenodd" stroke="none" />
</svg>