<svg width="38" height="38" viewBox="0 0 38 38" fill="none" xmlns="http://www.w3.org/2000/svg">
<path opacity="0.1" fill-rule="evenodd" clip-rule="evenodd" d="M19 38C29.4934 38 38 29.4934 38 19C38 8.50659 29.4934 0 19 0C8.50659 0 0 8.50659 0 19C0 29.4934 8.50659 38 19 38Z" fill="#0A84EC"/>
<path d="M18.6769 12.7368L19.222 12.1776C19.4527 11.9408 19.8259 11.9408 20.0542 12.1776L24.8269 17.0718C25.0577 17.3086 25.0577 17.6914 24.8269 17.9257L20.0542 22.8224C19.8235 23.0592 19.4503 23.0592 19.222 22.8224L18.6769 22.2632C18.4437 22.0239 18.4486 21.6335 18.6868 21.3992L21.6451 18.5076H14.5892C14.2627 18.5076 14 18.238 14 17.903V17.097C14 16.762 14.2627 16.4924 14.5892 16.4924H21.6451L18.6868 13.6008C18.4462 13.3665 18.4412 12.9761 18.6769 12.7368Z" fill="#0A84EC"/>
</svg>
